<?xml version="1.0" encoding="UTF-8"?>
<svg width="16px" height="20px" viewBox="0 0 16 20" version="1.1" xmlns="http://www.w3.org/2000/svg" xmlns:xlink="http://www.w3.org/1999/xlink">
    <!-- Generator: Sketch 40.3 (33839) - http://www.bohemiancoding.com/sketch -->
    <title>restore</title>
    <desc>Created with Sketch.</desc>
    <defs>
        <rect id="path-1" x="0" y="0" width="20" height="20"></rect>
    </defs>
    <g id="Page-1" stroke="none" stroke-width="1" fill="none" fill-rule="evenodd">
        <g id="Add" transform="translate(-280.000000, -150.000000)">
            <g id="restore" transform="translate(278.000000, 150.000000)">
                <mask id="mask-2" fill="white">
                    <use xlink:href="#path-1"></use>
                </mask>
                <g id="Mask"></g>
                <path d="M8.91375412,3.51378027 L6.05620606,1.86397413 C5.5793339,1.58865185 5.41468505,0.981060843 5.69275263,0.499433652 C5.96889501,0.0211410283 6.58509359,-0.140073598 7.05620606,0.131923317 L12.2575024,3.13489318 C12.4955141,3.27230927 12.6557476,3.49249708 12.7219781,3.73848287 C12.7860353,3.99045125 12.7581957,4.26172732 12.6224408,4.49686168 L9.61947093,9.69815805 C9.34414866,10.1750302 8.73655765,10.3396791 8.25493046,10.0616115 C7.77663784,9.7854691 7.61542321,9.16927053 7.88742013,8.69815805 L9.76554385,5.44515234 C6.56050417,5.56830321 4,8.20546051 4,11.4406556 C4,14.7543641 6.6862915,17.4406556 10,17.4406556 C13.3137085,17.4406556 16,14.7543641 16,11.4406556 C16,10.8883709 16.4477153,10.4406556 17,10.4406556 C17.5522847,10.4406556 18,10.8883709 18,11.4406556 C18,15.8589336 14.418278,19.4406556 10,19.4406556 C5.581722,19.4406556 2,15.8589336 2,11.4406556 C2,7.39080714 5.00928518,4.04381488 8.91375412,3.51378027 Z" id="Combined-Shape" fill="#D8D8D8" mask="url(#mask-2)"></path>
            </g>
        </g>
    </g>
</svg>